<?xml version="1.0" standalone="no"?>
<!DOCTYPE svg PUBLIC "-//W3C//DTD SVG 20010904//EN"
 "http://www.w3.org/TR/2001/REC-SVG-20010904/DTD/svg10.dtd">
<svg version="1.0" xmlns="http://www.w3.org/2000/svg"
 width="475.000000pt" height="475.000000pt" viewBox="0 0 475.000000 475.000000"
 preserveAspectRatio="xMidYMid meet">
<metadata>
Created by potrace 1.14, written by Peter Selinger 2001-2017
</metadata>
<g transform="translate(0.000000,475.000000) scale(0.100000,-0.100000)"
fill="#000000" stroke="none">
<path d="M641 4495 c-20 -33 -25 -90 -24 -285 1 -132 10 -313 18 -350 3 -14 7
-45 10 -70 3 -25 8 -56 10 -70 2 -14 7 -45 11 -70 3 -24 7 -48 10 -51 2 -4 6
-24 10 -45 3 -20 10 -48 15 -61 18 -49 7 -43 -70 38 -43 45 -88 84 -98 85 -21
4 -62 -29 -64 -49 -9 -142 -32 -176 -129 -192 -42 -6 -100 -66 -100 -102 0
-13 -4 -22 -8 -19 -4 2 -8 -4 -8 -14 0 -10 4 -16 8 -14 7 5 12 -18 9 -38 0 -5
3 -8 8 -8 13 0 38 -58 45 -103 10 -61 35 -177 52 -237 8 -30 22 -80 30 -110
13 -50 28 -92 57 -160 12 -29 38 -95 62 -160 9 -25 33 -78 52 -119 28 -57 36
-86 34 -121 -4 -89 -2 -367 3 -450 8 -130 15 -212 20 -240 3 -14 7 -47 11 -75
3 -27 11 -70 16 -95 6 -25 13 -56 15 -70 3 -14 10 -41 16 -60 15 -44 16 -48
24 -90 3 -19 9 -37 13 -40 4 -3 13 -25 20 -50 29 -95 60 -179 89 -236 17 -32
47 -93 68 -134 20 -41 42 -84 48 -95 17 -33 90 -150 96 -155 4 -3 12 -19 19
-37 32 -78 145 -124 240 -97 14 4 28 8 31 9 129 32 314 155 411 275 83 102 91
108 135 105 21 -2 64 -8 94 -14 30 -6 116 -13 190 -16 74 -3 140 -7 147 -10 6
-2 30 -28 53 -57 148 -189 182 -223 264 -263 79 -39 135 -52 216 -49 82 3 118
13 184 47 63 34 219 181 231 217 3 11 11 20 16 20 5 0 12 1 17 2 4 1 34 8 67
15 92 20 93 21 151 42 49 19 73 30 114 52 8 5 40 21 70 36 160 81 268 192 392
406 31 53 55 97 53 97 -2 0 3 17 11 37 9 20 18 45 20 55 2 10 6 28 9 41 58
244 50 417 -28 618 -1 3 27 30 63 59 36 29 88 74 116 99 28 25 66 55 85 66 31
19 41 39 55 103 3 15 -5 42 -21 69 -35 63 -32 90 15 137 21 22 44 52 51 68 6
15 15 28 20 28 5 0 6 6 3 14 -8 21 -54 29 -169 32 -55 1 -103 3 -107 3 -4 1
-20 26 -35 57 -15 31 -38 64 -51 75 l-25 19 -36 -33 c-21 -17 -52 -51 -70 -74
-20 -26 -44 -44 -64 -49 -39 -10 -39 -9 -57 -17 -8 -3 -44 -12 -79 -21 -100
-24 -106 -7 -28 76 125 133 141 154 270 343 99 145 228 404 253 510 4 17 10
35 15 41 9 11 28 77 60 203 21 85 16 105 -36 126 -78 33 -208 61 -329 70 -28
2 -87 7 -131 11 -103 9 -314 9 -480 0 -147 -8 -220 -14 -220 -16 0 -8 -78 -7
-112 2 -34 8 -49 20 -82 67 -48 68 -138 156 -206 201 -27 19 -62 41 -76 51
-42 28 -112 57 -150 62 -20 2 -42 8 -48 12 -17 10 -94 17 -181 18 -83 0 -106
-8 -258 -85 -104 -53 -169 -102 -216 -164 l-32 -42 -55 37 c-193 130 -454 274
-579 320 -19 8 -54 22 -77 32 -38 17 -161 54 -210 63 -10 2 -38 10 -63 16 -25
7 -78 16 -118 19 l-73 7 -18 -31z"/>
</g>
</svg>
